<svg version="1.1" viewBox="0.0 0.0 318.7979002624672 316.41207349081367" fill="none" stroke="none" stroke-linecap="square" stroke-miterlimit="10" xmlns:xlink="http://www.w3.org/1999/xlink" xmlns="http://www.w3.org/2000/svg"><clipPath id="p.0"><path d="m0 0l318.7979 0l0 316.41208l-318.7979 0l0 -316.41208z" clip-rule="nonzero"/></clipPath><g clip-path="url(#p.0)"><path fill="#000000" fill-opacity="0.0" d="m0 0l318.7979 0l0 316.41208l-318.7979 0z" fill-rule="evenodd"/><path fill="#000000" d="m232.49379 215.28752l41.38582 71.023605l-16.346466 9.543304l-41.38582 -71.023605z" fill-rule="evenodd"/><path stroke="#000000" stroke-width="1.0" stroke-linejoin="round" stroke-linecap="butt" d="m232.49379 215.28752l41.38582 71.023605l-16.346466 9.543304l-41.38582 -71.023605z" fill-rule="evenodd"/><path fill="#000000" d="m74.491165 218.8492l-41.38583 71.023605l16.346458 9.543335l41.385822 -71.023636z" fill-rule="evenodd"/><path stroke="#000000" stroke-width="1.0" stroke-linejoin="round" stroke-linecap="butt" d="m74.491165 218.8492l-41.38583 71.023605l16.346458 9.543335l41.385822 -71.023636z" fill-rule="evenodd"/><path fill="#ffffff" d="m30.372429 142.46811l0 0c0 -61.91535 50.192314 -112.107666 112.10767 -112.107666l0 0c29.732788 0 58.247818 11.811312 79.27208 32.83558c21.024277 21.024265 32.835587 49.539288 32.835587 79.272095l0 0c0 61.91536 -50.19232 112.107666 -112.107666 112.107666l0 0c-61.91536 0 -112.10767 -50.192307 -112.10767 -112.107666z" fill-rule="evenodd"/><path stroke="#000000" stroke-width="1.0" stroke-linejoin="round" stroke-linecap="butt" d="m30.372429 142.46811l0 0c0 -61.91535 50.192314 -112.107666 112.10767 -112.107666l0 0c29.732788 0 58.247818 11.811312 79.27208 32.83558c21.024277 21.024265 32.835587 49.539288 32.835587 79.272095l0 0c0 61.91536 -50.19232 112.107666 -112.107666 112.107666l0 0c-61.91536 0 -112.10767 -50.192307 -112.10767 -112.107666z" fill-rule="evenodd"/><path fill="#ff0000" d="m138.50995 144.34087l0 0c0 -6.4155426 5.200821 -11.616364 11.616364 -11.616364l0 0c3.080841 0 6.035507 1.2238617 8.2140045 3.4023438c2.178482 2.1784973 3.4023438 5.1331635 3.4023438 8.21402l0 0c0 6.4155273 -5.200821 11.616348 -11.616348 11.616348l0 0c-6.4155426 0 -11.616364 -5.200821 -11.616364 -11.616348z" fill-rule="evenodd"/><path stroke="#000000" stroke-width="4.0" stroke-linejoin="round" stroke-linecap="butt" d="m138.50995 144.34087l0 0c0 -6.4155426 5.200821 -11.616364 11.616364 -11.616364l0 0c3.080841 0 6.035507 1.2238617 8.2140045 3.4023438c2.178482 2.1784973 3.4023438 5.1331635 3.4023438 8.21402l0 0c0 6.4155273 -5.200821 11.616348 -11.616348 11.616348l0 0c-6.4155426 0 -11.616364 -5.200821 -11.616364 -11.616348z" fill-rule="evenodd"/><path fill="#ff0000" d="m101.45523 144.98213l0 0c0 -26.887062 21.790787 -48.683334 48.67108 -48.683334l0 0c12.908371 0 25.28804 5.1291275 34.415634 14.259018c9.127609 9.129898 14.255432 21.512695 14.255432 34.424316l0 0c0 26.887054 -21.790787 48.68332 -48.671066 48.68332l0 0c-26.880295 0 -48.67108 -21.796265 -48.67108 -48.68332zm15.036446 0l0 0c0 18.582657 15.058739 33.64688 33.634636 33.64688c18.575882 0 33.63463 -15.064224 33.63463 -33.64688l0 0c0 -18.582664 -15.058746 -33.64689 -33.63463 -33.64689l0 0c-18.575897 0 -33.634636 15.064224 -33.634636 33.64689z" fill-rule="evenodd"/><path stroke="#000000" stroke-width="4.0" stroke-linejoin="round" stroke-linecap="butt" d="m101.45523 144.98213l0 0c0 -26.887062 21.790787 -48.683334 48.67108 -48.683334l0 0c12.908371 0 25.28804 5.1291275 34.415634 14.259018c9.127609 9.129898 14.255432 21.512695 14.255432 34.424316l0 0c0 26.887054 -21.790787 48.68332 -48.671066 48.68332l0 0c-26.880295 0 -48.67108 -21.796265 -48.67108 -48.68332zm15.036446 0l0 0c0 18.582657 15.058739 33.64688 33.634636 33.64688c18.575882 0 33.63463 -15.064224 33.63463 -33.64688l0 0c0 -18.582664 -15.058746 -33.64689 -33.63463 -33.64689l0 0c-18.575897 0 -33.634636 15.064224 -33.634636 33.64689z" fill-rule="evenodd"/><path fill="#ff0000" d="m65.02545 144.98213l0 0c0 -46.99991 38.100952 -85.10086 85.10086 -85.10086l0 0c22.570145 0 44.21588 8.965958 60.175385 24.92546c15.959518 15.959511 24.925476 37.605247 24.925476 60.1754l0 0c0 46.99991 -38.100952 85.10086 -85.10086 85.10086l0 0c-46.99991 0 -85.10086 -38.100952 -85.10086 -85.10086zm14.439911 0l0 0c0 39.024963 31.635979 70.660934 70.66095 70.660934c39.024963 0 70.660934 -31.635971 70.660934 -70.660934l0 0c0 -39.024963 -31.635971 -70.66095 -70.660934 -70.66095l0 0c-39.02497 0 -70.66095 31.635986 -70.66095 70.66095z" fill-rule="evenodd"/><path stroke="#000000" stroke-width="4.0" stroke-linejoin="round" stroke-linecap="butt" d="m65.02545 144.98213l0 0c0 -46.99991 38.100952 -85.10086 85.10086 -85.10086l0 0c22.570145 0 44.21588 8.965958 60.175385 24.92546c15.959518 15.959511 24.925476 37.605247 24.925476 60.1754l0 0c0 46.99991 -38.100952 85.10086 -85.10086 85.10086l0 0c-46.99991 0 -85.10086 -38.100952 -85.10086 -85.10086zm14.439911 0l0 0c0 39.024963 31.635979 70.660934 70.66095 70.660934c39.024963 0 70.660934 -31.635971 70.660934 -70.660934l0 0c0 -39.024963 -31.635971 -70.66095 -70.660934 -70.66095l0 0c-39.02497 0 -70.66095 31.635986 -70.66095 70.66095z" fill-rule="evenodd"/><path fill="#ff0000" d="m30.372429 144.98213l0 0c0 -66.138245 53.61564 -119.75388 119.75388 -119.75388l0 0c31.760696 0 62.220566 12.61689 84.67877 35.0751c22.458221 22.45821 35.075104 52.91808 35.075104 84.67879l0 0c0 66.138245 -53.615646 119.75386 -119.753876 119.75386l0 0c-66.138245 0 -119.75388 -53.615616 -119.75388 -119.75386zm20.31984 0l0 0c0 54.915894 44.518135 99.43404 99.434044 99.43404c54.915894 0 99.43404 -44.518143 99.43404 -99.43404l0 0c0 -54.91591 -44.518143 -99.434044 -99.43404 -99.434044l0 0c-54.91591 0 -99.434044 44.518135 -99.434044 99.434044z" fill-rule="evenodd"/><path stroke="#000000" stroke-width="4.0" stroke-linejoin="round" stroke-linecap="butt" d="m30.372429 144.98213l0 0c0 -66.138245 53.61564 -119.75388 119.75388 -119.75388l0 0c31.760696 0 62.220566 12.61689 84.67877 35.0751c22.458221 22.45821 35.075104 52.91808 35.075104 84.67879l0 0c0 66.138245 -53.615646 119.75386 -119.753876 119.75386l0 0c-66.138245 0 -119.75388 -53.615616 -119.75388 -119.75386zm20.31984 0l0 0c0 54.915894 44.518135 99.43404 99.434044 99.43404c54.915894 0 99.43404 -44.518143 99.43404 -99.43404l0 0c0 -54.91591 -44.518143 -99.434044 -99.43404 -99.434044l0 0c-54.91591 0 -99.434044 44.518135 -99.434044 99.434044z" fill-rule="evenodd"/></g></svg>